<?xml version="1.0" encoding="utf-8"?>
<!-- Generator: Adobe Illustrator 24.3.0, SVG Export Plug-In . SVG Version: 6.00 Build 0)  -->
<svg version="1.1" id="Layer_1" xmlns="http://www.w3.org/2000/svg" xmlns:xlink="http://www.w3.org/1999/xlink" x="0px" y="0px"
	 viewBox="0 0 85 85" style="enable-background:new 0 0 85 85;" xml:space="preserve">
<style type="text/css">
	.st0{fill:#FFFFFF;}
	.st1{fill:#8CC9F0;}
	.st2{fill:#E8BAAB;}
</style>
<g>
	<path class="st0" d="M42.5,0C66,0,85,19,85,42.5S66,85,42.5,85S0,66,0,42.5S19,0,42.5,0z"/>
</g>
<g>
	<path class="st1" d="M53.5,34.6c0,1.1-0.9,1.9-1.9,1.9c-1.1,0-1.9-0.9-1.9-1.9c0-1.1,0.9-1.9,1.9-1.9
		C52.7,32.7,53.5,33.5,53.5,34.6z M58,28.8c0-0.4-0.3-0.6-0.7-0.6c-7,0-10.9,1.6-15.9,6.6c-1.1,1.2-2.3,2.5-3.5,3.9l-7.6,0.4
		c-0.2,0-0.4,0.1-0.5,0.3l-4.5,7.7c-0.1,0.2-0.1,0.6,0.1,0.8l1.3,1.3c0.1,0.1,0.3,0.2,0.5,0.2c0.1,0,0.1,0,0.2,0l5.6-1.7l5.7,5.7
		l-1.7,5.6c-0.1,0.2,0,0.5,0.2,0.6l1.3,1.3c0.1,0.1,0.3,0.2,0.5,0.2c0.1,0,0.2,0,0.3-0.1l7.7-4.5c0.2-0.1,0.3-0.3,0.3-0.5l0.4-7.6
		c1.4-1.2,2.8-2.4,3.9-3.5C56.2,40,58,35.5,58,28.8z"/>
</g>
<circle class="st2" cx="42.5" cy="42.5" r="42.5"/>
<path class="st0" d="M61.5,27.6c0.2,0.2,0.1,0.4,0,0.6c0,0-0.1,0.1-0.1,0.1c-0.3,0.2-0.5,0.1-0.7-0.2c-0.1,0-0.1,0-0.1-0.1
	c-0.2-0.6-0.7-1.2-1.3-1.5c-0.7-0.4-1.5-0.6-2.4-0.6c-0.6,0-1.3,0-1.9,0.1c-0.8,0.1-1.7,0.2-2.6,0.4l-2.8,0.4
	c-0.9,0.1-1.7,0.3-2.4,0.4c-0.4,0.1-0.9,0.2-1.5,0.3c-0.5,0.1-1.1,0.2-1.7,0.2c-0.4,1.3-0.8,2.8-1.2,4.4c-0.5,1.7-0.9,3.4-1.4,5.2
	c-0.5,1.8-0.9,3.6-1.3,5.4c-0.4,1.8-0.7,3.5-1,5c-0.2,1.1-0.4,2.3-0.6,3.5c-0.2,1.2-0.3,2.5-0.4,3.8c-0.1,1.2-0.1,2.3,0,3.5
	c0,0.9,0.3,1.9,0.7,2.7c0.2,0.5,0.7,0.8,1.2,0.9c0.5,0.1,1,0.1,1.5-0.1c0.6-0.2,1.2-0.4,1.7-0.7c0.5-0.3,1-0.6,1.5-1
	c1-0.9,1.8-1.8,2.6-2.8c0.9-1.1,1.6-2.1,2.2-3.1c0.7-1.1,1.3-2.2,1.9-3.3c0.6-1.1,1.1-2.3,1.6-3.6c0.1-0.2,0.3-0.3,0.5-0.2
	s0.3,0.3,0.2,0.5c-0.5,1.2-1.1,2.4-1.7,3.6c-0.6,1.2-1.2,2.3-1.9,3.4c-0.7,1.2-1.5,2.3-2.4,3.4c-0.8,1-1.6,1.9-2.5,2.7
	c-0.7,0.6-1.5,1.2-2.2,1.7c-0.7,0.5-1.6,0.9-2.4,1.2C39.6,64,38.8,64,38,63.9c-0.8-0.2-1.5-0.6-2.1-1.2c-0.8-0.9-1.4-2-1.6-3.2
	c-0.3-1.4-0.4-2.7-0.4-4.1c0-1.5,0.1-2.9,0.3-4.4c0.2-1.5,0.4-2.8,0.6-4c0.7-3.7,1.4-7.2,2.1-10.5c0.8-3.3,1.5-6,2.2-8.2l-1.9,0.2
	c-2,0.2-4.1,0.2-6.1-0.1c-1.3-0.2-2.6-0.5-3.9-1c-1.7-0.6-3-1.8-3.9-3.4c-0.2-0.2-0.1-0.5,0.1-0.7c0,0,0.1-0.1,0.1-0.1
	c0.3-0.2,0.6-0.1,0.7,0.3c0.3,0.7,0.7,1.4,1.3,1.9c0.6,0.5,1.2,1,1.9,1.3c1.2,0.4,2.5,0.7,3.7,0.9c2,0.2,4,0.2,5.9-0.2l2.4-0.3
	c0.1-0.3,0.2-0.6,0.3-0.8c0.1-0.3,0.2-0.5,0.3-0.7c0.2-0.6,0.7-1.1,1.2-1.5c0.5-0.3,1.1-0.6,1.7-0.7c0.5-0.1,1,0.1,1.4,0.3
	c0.4,0.2,0.5,0.6,0.4,1l-0.2,0.7c-0.1,0.2-0.2,0.4-0.2,0.5c0,0.2-0.1,0.4-0.1,0.6l1.2-0.1l1.5-0.2c1.8-0.2,3.2-0.4,4.2-0.5
	c1.1-0.1,2-0.3,2.7-0.4c0.7-0.1,1.3-0.2,1.7-0.2c0.5,0,0.9-0.1,1.4-0.1c0.9,0,1.8,0.3,2.7,0.6C60.4,26.2,61.1,26.8,61.5,27.6z"/>
</svg>
