<svg id="Layer_1" data-name="Layer 1" xmlns="http://www.w3.org/2000/svg" viewBox="0 0 100 100"><defs><style>.cls-1{fill:#e8baab;}.cls-2{fill:#fff;}</style></defs><circle class="cls-1" cx="50" cy="50" r="50"/><path class="cls-2" d="M72.35,32.51a.49.49,0,0,1-.21.79c-.36.2-.62.1-.79-.29-.06,0-.09,0-.09-.08a3.44,3.44,0,0,0-1.54-1.76,6.15,6.15,0,0,0-2.8-.75,11.5,11.5,0,0,0-2.26.08c-.94.12-2,.25-3.09.42l-3.3.5c-1.08.17-2.05.34-2.88.5-.5.12-1.07.21-1.71.3s-1.33.18-2,.29c-.45,1.5-.93,3.25-1.46,5.22s-1.06,4-1.59,6.14-1,4.24-1.5,6.35-.88,4.1-1.22,5.94c-.22,1.28-.46,2.67-.71,4.17a43.53,43.53,0,0,0-.5,4.43,35,35,0,0,0,0,4.1,7.8,7.8,0,0,0,.8,3.17,2,2,0,0,0,1.38,1.09A3.73,3.73,0,0,0,48.66,73a10.52,10.52,0,0,0,2-.83,9.34,9.34,0,0,0,1.75-1.22,25.12,25.12,0,0,0,3.09-3.34Q57,65.68,58.06,64a38.68,38.68,0,0,0,2.26-3.93c.67-1.33,1.31-2.73,1.92-4.18a.45.45,0,1,1,.84.34c-.62,1.45-1.27,2.85-2,4.22a43.45,43.45,0,0,1-2.29,4,35,35,0,0,1-2.8,4A30.3,30.3,0,0,1,53,71.61a27,27,0,0,1-2.64,2A10.07,10.07,0,0,1,47.49,75a6.26,6.26,0,0,1-2.84.16,4.34,4.34,0,0,1-2.46-1.42A7,7,0,0,1,40.31,70a24.32,24.32,0,0,1-.46-4.84A35.85,35.85,0,0,1,40.22,60c.26-1.73.49-3.29.71-4.68Q42.1,48.81,43.44,43T46,33.35l-2.25.25a31.39,31.39,0,0,1-7.19-.13A18.46,18.46,0,0,1,32,32.26a8.81,8.81,0,0,1-4.59-4,.56.56,0,0,1,.25-.88c.39-.19.67-.07.83.38A5.6,5.6,0,0,0,30,30a9.68,9.68,0,0,0,2.29,1.55,17.71,17.71,0,0,0,4.39,1,25.93,25.93,0,0,0,7-.2l2.84-.34q.16-.5.33-1c.11-.3.23-.6.34-.88a3.37,3.37,0,0,1,1.46-1.71,5.82,5.82,0,0,1,2.05-.79A2.51,2.51,0,0,1,52.3,28a.94.94,0,0,1,.42,1.21l-.25.83a3.84,3.84,0,0,0-.26.63c-.05.2-.11.43-.16.71l1.46-.17L55.22,31c2.06-.23,3.73-.42,5-.59s2.34-.32,3.17-.46,1.5-.24,2-.29A13.36,13.36,0,0,1,67,29.59a8.32,8.32,0,0,1,3.14.75A4.52,4.52,0,0,1,72.35,32.51Z"/></svg>